<?xml version="1.0" encoding="UTF-8"?>
<svg width="300" height="400" version="1.1" viewBox="0 0 79.375 105.83" xmlns="http://www.w3.org/2000/svg" xmlns:cc="http://creativecommons.org/ns#" xmlns:dc="http://purl.org/dc/elements/1.1/" xmlns:rdf="http://www.w3.org/1999/02/22-rdf-syntax-ns#">
 <metadata>
  <rdf:RDF>
   <cc:Work rdf:about="">
    <dc:format>image/svg+xml</dc:format>
    <dc:type rdf:resource="http://purl.org/dc/dcmitype/StillImage"/>
    <dc:title/>
   </cc:Work>
  </rdf:RDF>
 </metadata>
 <path d="m38.536 37.043c1.9087-0.0058 3.8347 8e-3 5.718 0.04341 8.4998 0.15968 13.141 0.44036 15.614 0.94362 2.1882 0.44524 3.9253 1.8053 4.8436 3.7931 0.51185 1.1078 0.92337 3.3686 1.1834 6.5014 0.20204 2.4344 0.25063 3.8682 0.25063 7.4006 0 3.5324-0.04861 4.9673-0.25063 7.4016-0.26003 3.1328-0.67154 5.3931-1.1834 6.5009-0.91839 1.9877-2.6555 3.3483-4.8436 3.7936-3.6219 0.73698-15.195 1.1478-26.102 0.92708-7.0225-0.14212-11.988-0.46467-14.261-0.92708-2.1882-0.44524-3.9253-1.8059-4.8436-3.7936-0.62995-1.3634-1.0362-4.0036-1.3446-8.7395-0.11761-1.8056-0.11761-8.5198 0-10.326 0.30846-4.7359 0.71467-7.3761 1.3446-8.7395 0.91839-1.9877 2.6555-3.3478 4.8436-3.7931 2.8083-0.57142 10.76-0.96204 19.03-0.98702zm-4.2225 10.884c-0.02293 0-0.04186 3.509-0.04186 7.798 0 4.289 0.01884 7.7985 0.04186 7.7985 0.02303 0 3.1093-1.7459 6.859-3.8794 3.7498-2.1335 6.8177-3.8971 6.8177-3.9192 0-0.04187-13.603-7.798-13.677-7.798zm5.3743-47.927c-17.788 0-39.688 24.855-39.688 58.529 0 33.675 20.249 47.305 39.688 47.305 19.439 0 39.687-13.63 39.687-47.305 0-33.674-21.899-58.529-39.687-58.529z" fill="#1da1f2" stroke-width=".066483"/>
 <g transform="matrix(.26458 0 0 .26458 -1.9655 12.398)" fill="#4d4d4d"></g>
 <style type="text/css">.st0{fill:#4B4B4B;}</style>
</svg>
